HIERARCHY
ROOT Hips
{
  OFFSET 2.26061 22.2878 23.7974
  CHANNELS 6 Xposition Yposition Zposition Zrotation Xrotation Yrotation
  JOINT LeftUpLeg
  {
    OFFSET 8.64259 1.95398 -2.38835
    CHANNELS 3 Zrotation Xrotation Yrotation
    JOINT LeftLeg
    {
      OFFSET 43.7702 0 0
      CHANNELS 3 Zrotation Xrotation Yrotation
      JOINT LeftFoot
      {
        OFFSET 40.6238 0 0
        CHANNELS 3 Zrotation Xrotation Yrotation
        JOINT LeftToeBase
        {
          OFFSET 12.7242 0 0
          CHANNELS 3 Zrotation Xrotation Yrotation
          End Site
          {
            OFFSET 0 0 0
          }
        }
      }
    }
  }
  JOINT RightUpLeg
  {
    OFFSET -8.2249 1.95398 -2.59336
    CHANNELS 3 Zrotation Xrotation Yrotation
    JOINT RightLeg
    {
      OFFSET 43.5653 0 0
      CHANNELS 3 Zrotation Xrotation Yrotation
      JOINT RightFoot
      {
        OFFSET 40.6238 0 0
        CHANNELS 3 Zrotation Xrotation Yrotation
        JOINT RightToeBase
        {
          OFFSET 12.7242 0 0
          CHANNELS 3 Zrotation Xrotation Yrotation
          End Site
          {
            OFFSET 0 0 0
          }
        }
      }
    }
  }
  JOINT Spine
  {
    OFFSET 0.165834 0.87714 6.61349
    CHANNELS 3 Zrotation Xrotation Yrotation
    JOINT Spine1
    {
      OFFSET 7.38963 1.71661e-005 0
      CHANNELS 3 Zrotation Xrotation Yrotation
      JOINT Spine2
      {
        OFFSET 11.9445 1.14441e-005 0
        CHANNELS 3 Zrotation Xrotation Yrotation
        JOINT Spine3
        {
          OFFSET 14.7254 4.19617e-005 0
          CHANNELS 3 Zrotation Xrotation Yrotation
          JOINT Spine4
          {
            OFFSET 10.9679 0 0
            CHANNELS 3 Zrotation Xrotation Yrotation
            JOINT RightShoulder
            {
              OFFSET 2.46616 -1.6653 3.69651
              CHANNELS 3 Zrotation Xrotation Yrotation
              JOINT RightArm
              {
                OFFSET 13.0012 0 0
                CHANNELS 3 Zrotation Xrotation Yrotation
                JOINT RightForeArm
                {
                  OFFSET 28.7848 1.52588e-005 0
                  CHANNELS 3 Zrotation Xrotation Yrotation
                  JOINT RightHand
                  {
                    OFFSET 26.5688 1.52588e-005 0
                    CHANNELS 3 Zrotation Xrotation Yrotation
                    End Site
                    {
                      OFFSET 0 0 0
                    }
                  }
                }
              }
            }
            JOINT LeftShoulder
            {
              OFFSET 2.38034 -1.29275 -3.7523
              CHANNELS 3 Zrotation Xrotation Yrotation
              JOINT LeftArm
              {
                OFFSET 16.3182 6.10351e-005 0
                CHANNELS 3 Zrotation Xrotation Yrotation
                JOINT LeftForeArm
                {
                  OFFSET 27.0901 0 0
                  CHANNELS 3 Zrotation Xrotation Yrotation
                  JOINT LeftHand
                  {
                    OFFSET 24.5451 1.52588e-005 0
                    CHANNELS 3 Zrotation Xrotation Yrotation
                    End Site
                    {
                      OFFSET 0 0 0
                    }
                  }
                }
              }
            }
            JOINT Neck
            {
              OFFSET 5.0226 -0.0266342 0
              CHANNELS 3 Zrotation Xrotation Yrotation
              JOINT Head
              {
                OFFSET 6.69363 2.86102e-005 0
                CHANNELS 3 Zrotation Xrotation Yrotation
                End Site
                {
                  OFFSET 0 0 0
                }
              }
            }
          }
        }
      }
    }
  }
}
MOTION
Frames:	6
Frame Time:	0.0416667
-283.645 79.2135 -284.351 78.8868 -39.6864 82.7238 -172.533 69.211 87.4767 -60.4024 22.829 1.10672 69.2109 29.9654 -15.6825 10.0922 -30.6581 32.2398 177.786 56.8371 95.0269 -84.3896 18.2423 -0.795801 11.5857 10.7729 23.2139 60.0138 8.28018 30.5315 -0.629871 8.08029 -90.285 10.7109 -1.38561 -0.439503 -0.959348 -1.40363 -0.378095 -23.4985 -1.18946 -0.835663 -3.48591 -1.18946 -0.835661 93.4919 -55.2281 -94.6181 19.6014 -1.5219 19.5801 -23.4632 16.3969 -130.521 12.8838 -2.0577 -18.9236 -105.002 -51.6052 57.539 -22.0923 16.1056 12.3052 -9.45071 -5.84533 -57.9411 35.2923 0.105926 -3.79388 23.2254 2.3144 3.02703 -0.779427 1.32574 1.32852 
-277.272 81.0715 -278.468 75.6256 -44.6735 80.7505 -171.946 66.728 92.2639 -76.8516 17.3467 0.830907 86.0512 30.0281 -17.8623 10.2736 -30.6126 32.6469 177.412 46.1922 97.9917 -77.1631 4.68334 -2.79605 14.8921 12.0587 18.2126 89.4144 14.2393 21.6048 0.284395 7.96608 -90.0513 10.9483 0.542295 -0.159065 -0.722579 0.534773 -0.182785 -23.2589 0.565043 0.0112679 -3.2462 0.565046 0.0112612 92.562 -52.3015 -96.4708 22.7304 2.47774 7.84802 -23.4755 10.6147 -124.116 12.0688 -1.68395 -16.4902 -105.526 -51.0381 56.5647 -25.9086 13.6118 21.6488 -9.41234 -6.09732 -55.8964 35.951 0.378042 -3.03841 27.3122 0.858618 1.19722 -4.84434 0.392349 1.84655 
-269.393 85.8736 -270.02 73.2553 -48.8142 75.0389 -165.99 56.4189 88.546 -79.9421 15.1025 -0.535479 73.0957 12.7269 -7.36595 19.6995 -14.8704 25.4023 179.785 26.3297 94.6993 -57.7622 -4.97396 -6.27182 15.874 10.0764 15.1783 108.59 13.8775 12.8511 1.1143 7.66738 -89.5315 11.5303 2.4361 0.68678 -0.138484 2.46394 0.578833 -22.6866 2.11704 1.38742 -2.67397 2.11705 1.38743 93.5055 -46.9541 -95.9567 26.9674 3.99945 3.07371 -24.3573 4.85141 -118.357 5.6603 -1.03408 -19.2529 -103.308 -52.6729 60.3335 -30.0354 15.9273 33.1397 -10.0231 -5.75894 -63.6211 34.3009 0.542097 -2.48162 25.1827 -0.378648 5.25101 -5.5885 -2.08156 -1.09939 
-258.429 90.8354 -259.981 73.8401 -48.9257 74.2799 -167.123 53.3539 87.7921 -62.1592 14.6325 -2.51733 49.5449 -7.02466 -0.351359 35.1239 4.82731 15.4103 178.085 6.90839 90.4768 -38.6019 -13.0797 -7.33439 23.7679 8.94537 11.5136 90.966 6.29199 5.77627 1.49391 7.43617 -89.2781 11.9888 3.31063 1.07957 0.321788 3.35495 0.932651 -22.2363 2.83308 2.0252 -2.22362 2.8331 2.02521 93.5964 -43.7911 -96.4009 28.5501 2.80143 3.26322 -28.0167 -4.01883 -114.406 -8.99983 1.47618 -23.1859 -99.7818 -51.2064 64.7607 -35.938 15.0502 42.0255 -9.82001 -5.11604 -68.6834 36.6838 0.425864 -2.87942 22.1493 -1.96033 7.75374 -5.06427 -4.22516 -4.61135 
-245.985 94.3315 -249.353 73.67 -48.0337 74.0422 -171.134 46.675 88.712 -33.4251 23.258 -3.77305 47.8723 -8.52129 2.65889 38.054 7.72893 13.3833 176.189 -1.50229 89.0684 -37.0406 -14.9421 -8.75152 46.3583 3.89233 3.54058 13.8841 -0.762595 0.0269501 1.7106 7.22358 -89.1396 12.409 3.80789 1.28334 0.743188 3.86066 1.11428 -21.8216 3.2461 2.36927 -1.80891 3.24608 2.36926 93.7988 -42.8978 -96.2296 28.2231 -2.56579 5.31456 -31.9323 -8.60599 -115.572 -23.3681 3.69136 -21.4587 -99.522 -49.204 64.4076 -38.9321 9.14104 47.6771 -6.83482 -4.0616 -74.3397 37.7014 0.922978 -1.59135 20.063 -3.11759 8.3777 -5.198 -5.36528 -6.01545 
-234.357 94.7488 -240.022 74.8803 -45.4127 78.1472 -172.602 42.947 89.2974 -24.3429 19.2618 -3.24409 48.8102 -7.69408 -0.314236 41.6871 11.4338 14.7642 177.144 -0.404433 92.7399 -54.379 -12.6425 -6.34277 68.2871 -4.18183 -2.18618 -16.2147 11.2532 -28.435 1.55405 7.05925 -89.4495 12.7483 3.34945 0.700977 1.08156 3.37707 0.552713 -21.4808 2.98384 1.676 -1.4682 2.98383 1.67599 94.2164 -43.2359 -95.4648 28.4546 -12.1294 8.59183 -29.9142 -2.58185 -112.715 -26.665 4.15583 -20.9648 -97.3409 -49.7641 67.7915 -38.9241 9.13297 45.3627 -3.1614 -3.07563 -75.7861 38.5768 0.357132 -3.15592 17.5488 -3.72334 7.37909 -3.45119 -5.60559 -6.08651 
